{
 "accessors": [
  {
   "componentType": 5126,
   "type": "VEC3",
   "count": 8400,
   "max": [
    0.5542052984237671,
    1.0095518827438354,
    0.5463969707489014
   ],
   "min": [
    -0.5511939525604248,
    -0.7170916795730591,
    -0.5466231107711792
   ],
   "bufferView": 0
  },
  {
   "componentType": 5126,
   "type": "VEC3",
   "count": 8400,
   "bufferView": 1
  },
  {
   "componentType": 5126,
   "type": "VEC2",
   "count": 8400,
   "bufferView": 2
  },
  {
   "componentType": 5123,
   "type": "SCALAR",
   "count": 32250,
   "bufferView": 3
  }
 ],
 "asset": {
  "version": "2.0",
  "generator": "clara.io"
 },
 "bufferViews": [
  {
   "buffer": 0,
   "byteOffset": 0,
   "byteLength": 100800,
   "target": 34962,
   "byteStride": 12
  },
  {
   "buffer": 0,
   "byteOffset": 100800,
   "byteLength": 100800,
   "target": 34962,
   "byteStride": 12
  },
  {
   "buffer": 0,
   "byteOffset": 201600,
   "byteLength": 67200,
   "target": 34962,
   "byteStride": 8
  },
  {
   "buffer": 0,
   "byteOffset": 268800,
   "byteLength": 64500,
   "target": 34963
  }
 ],
 "buffers": [
  {
   "byteLength": 333300,
   "uri": "data:application/octet-stream;base64,"
  }
 ],
 "materials": [
  {
   "name": "Default-Box",
   "pbrMetallicRoughness": {
    "baseColorFactor": [
     0.6901960784313725,
     0.6901960784313725,
     0.6901960784313725,
     1
    ]
   }
  }
 ],
 "meshes": [
  {
   "primitives": [
    {
     "indices": 3,
     "material": 0,
     "mode": 4,
     "attributes": {
      "POSITION": 0,
      "NORMAL": 1,
      "TEXCOORD_0": 2
     }
    }
   ]
  }
 ],
 "nodes": [
  {
   "name": "Box",
   "translation": [
    0,
    1.9118000268936157,
    0
   ],
   "rotation": [
    0,
    0,
    0.999998807906394,
    -0.0015481064157349927
   ],
   "mesh": 0
  }
 ],
 "scene": 0,
 "scenes": [
  {
   "nodes": [
    0
   ]
  }
 ]
}