{
 "accessors": [
  {
   "componentType": 5126,
   "type": "VEC3",
   "count": 50,
   "max": [
    0.5,
    0.5,
    0.5
   ],
   "min": [
    -0.5,
    -0.5,
    -0.5
   ],
   "bufferView": 0
  },
  {
   "componentType": 5126,
   "type": "VEC3",
   "count": 50,
   "bufferView": 1
  },
  {
   "componentType": 5126,
   "type": "VEC2",
   "count": 50,
   "bufferView": 2
  },
  {
   "componentType": 5121,
   "type": "SCALAR",
   "count": 72,
   "bufferView": 3
  },
  {
   "componentType": 5126,
   "type": "VEC3",
   "count": 437,
   "max": [
    0.5,
    0.5,
    0.5
   ],
   "min": [
    -0.5,
    -0.5,
    -0.5
   ],
   "bufferView": 4
  },
  {
   "componentType": 5126,
   "type": "VEC3",
   "count": 437,
   "bufferView": 5
  },
  {
   "componentType": 5126,
   "type": "VEC2",
   "count": 437,
   "bufferView": 6
  },
  {
   "componentType": 5123,
   "type": "SCALAR",
   "count": 1440,
   "bufferView": 7
  },
  {
   "componentType": 5126,
   "type": "VEC3",
   "count": 50,
   "max": [
    0.5,
    0.5,
    0.5
   ],
   "min": [
    -0.5,
    -0.5,
    -0.5
   ],
   "bufferView": 8
  },
  {
   "componentType": 5126,
   "type": "VEC3",
   "count": 50,
   "bufferView": 9
  },
  {
   "componentType": 5126,
   "type": "VEC2",
   "count": 50,
   "bufferView": 10
  },
  {
   "componentType": 5121,
   "type": "SCALAR",
   "count": 72,
   "bufferView": 11
  },
  {
   "componentType": 5126,
   "type": "VEC3",
   "count": 50,
   "max": [
    0.5,
    0.5,
    0.5
   ],
   "min": [
    -0.5,
    -0.5,
    -0.5
   ],
   "bufferView": 12
  },
  {
   "componentType": 5126,
   "type": "VEC3",
   "count": 50,
   "bufferView": 13
  },
  {
   "componentType": 5126,
   "type": "VEC2",
   "count": 50,
   "bufferView": 14
  },
  {
   "componentType": 5121,
   "type": "SCALAR",
   "count": 72,
   "bufferView": 15
  },
  {
   "componentType": 5126,
   "type": "VEC3",
   "count": 3024,
   "max": [
    0.4946874976158142,
    0.5,
    0.4946874976158142
   ],
   "min": [
    -0.4946874976158142,
    -0.5,
    -0.4946874976158142
   ],
   "bufferView": 16
  },
  {
   "componentType": 5126,
   "type": "VEC3",
   "count": 3024,
   "bufferView": 17
  },
  {
   "componentType": 5126,
   "type": "VEC2",
   "count": 3024,
   "bufferView": 18
  },
  {
   "componentType": 5123,
   "type": "SCALAR",
   "count": 11520,
   "bufferView": 19
  }
 ],
 "asset": {
  "version": "2.0",
  "generator": "clara.io"
 },
 "bufferViews": [
  {
   "buffer": 0,
   "byteOffset": 0,
   "byteLength": 600,
   "target": 34962,
   "byteStride": 12
  },
  {
   "buffer": 0,
   "byteOffset": 600,
   "byteLength": 600,
   "target": 34962,
   "byteStride": 12
  },
  {
   "buffer": 0,
   "byteOffset": 1200,
   "byteLength": 400,
   "target": 34962,
   "byteStride": 8
  },
  {
   "buffer": 0,
   "byteOffset": 1600,
   "byteLength": 72,
   "target": 34963
  },
  {
   "buffer": 0,
   "byteOffset": 1672,
   "byteLength": 5244,
   "target": 34962,
   "byteStride": 12
  },
  {
   "buffer": 0,
   "byteOffset": 6916,
   "byteLength": 5244,
   "target": 34962,
   "byteStride": 12
  },
  {
   "buffer": 0,
   "byteOffset": 12160,
   "byteLength": 3496,
   "target": 34962,
   "byteStride": 8
  },
  {
   "buffer": 0,
   "byteOffset": 15656,
   "byteLength": 2880,
   "target": 34963
  },
  {
   "buffer": 0,
   "byteOffset": 18536,
   "byteLength": 600,
   "target": 34962,
   "byteStride": 12
  },
  {
   "buffer": 0,
   "byteOffset": 19136,
   "byteLength": 600,
   "target": 34962,
   "byteStride": 12
  },
  {
   "buffer": 0,
   "byteOffset": 19736,
   "byteLength": 400,
   "target": 34962,
   "byteStride": 8
  },
  {
   "buffer": 0,
   "byteOffset": 20136,
   "byteLength": 72,
   "target": 34963
  },
  {
   "buffer": 0,
   "byteOffset": 20208,
   "byteLength": 600,
   "target": 34962,
   "byteStride": 12
  },
  {
   "buffer": 0,
   "byteOffset": 20808,
   "byteLength": 600,
   "target": 34962,
   "byteStride": 12
  },
  {
   "buffer": 0,
   "byteOffset": 21408,
   "byteLength": 400,
   "target": 34962,
   "byteStride": 8
  },
  {
   "buffer": 0,
   "byteOffset": 21808,
   "byteLength": 72,
   "target": 34963
  },
  {
   "buffer": 0,
   "byteOffset": 21880,
   "byteLength": 36288,
   "target": 34962,
   "byteStride": 12
  },
  {
   "buffer": 0,
   "byteOffset": 58168,
   "byteLength": 36288,
   "target": 34962,
   "byteStride": 12
  },
  {
   "buffer": 0,
   "byteOffset": 94456,
   "byteLength": 24192,
   "target": 34962,
   "byteStride": 8
  },
  {
   "buffer": 0,
   "byteOffset": 118648,
   "byteLength": 23040,
   "target": 34963
  }
 ],
 "buffers": [
  {
   "byteLength": 141688,
   "uri": "data:application/octet-stream;base64,"
  }
 ],
 "materials": [
  {
   "name": "Default-Cone2",
   "pbrMetallicRoughness": {
    "baseColorFactor": [
     0.6901960784313725,
     0.6901960784313725,
     0.6901960784313725,
     1
    ]
   },
   "doubleSided": true
  },
  {
   "name": "Default-Cylinder",
   "pbrMetallicRoughness": {
    "baseColorFactor": [
     0.8588235294117647,
     0.7215686274509804,
     0,
     1
    ]
   },
   "doubleSided": true
  },
  {
   "name": "Default-Cone",
   "pbrMetallicRoughness": {
    "baseColorFactor": [
     0.8588235294117647,
     0.8352941176470589,
     0.30980392156862746,
     1
    ]
   },
   "doubleSided": true
  },
  {
   "name": "Default-Cone1",
   "pbrMetallicRoughness": {
    "baseColorFactor": [
     0.6901960784313725,
     0.6901960784313725,
     0.6901960784313725,
     1
    ]
   },
   "doubleSided": true
  },
  {
   "name": "Default-Cylinder1",
   "pbrMetallicRoughness": {
    "baseColorFactor": [
     0.9764705882352941,
     0.9411764705882353,
     0.011764705882352941,
     1
    ]
   },
   "doubleSided": true
  }
 ],
 "meshes": [
  {
   "primitives": [
    {
     "indices": 3,
     "material": 0,
     "mode": 4,
     "attributes": {
      "POSITION": 0,
      "NORMAL": 1,
      "TEXCOORD_0": 2
     }
    }
   ]
  },
  {
   "primitives": [
    {
     "indices": 7,
     "material": 1,
     "mode": 4,
     "attributes": {
      "POSITION": 4,
      "NORMAL": 5,
      "TEXCOORD_0": 6
     }
    }
   ]
  },
  {
   "primitives": [
    {
     "indices": 11,
     "material": 2,
     "mode": 4,
     "attributes": {
      "POSITION": 8,
      "NORMAL": 9,
      "TEXCOORD_0": 10
     }
    }
   ]
  },
  {
   "primitives": [
    {
     "indices": 15,
     "material": 3,
     "mode": 4,
     "attributes": {
      "POSITION": 12,
      "NORMAL": 13,
      "TEXCOORD_0": 14
     }
    }
   ]
  },
  {
   "primitives": [
    {
     "indices": 19,
     "material": 4,
     "mode": 4,
     "attributes": {
      "POSITION": 16,
      "NORMAL": 17,
      "TEXCOORD_0": 18
     }
    }
   ]
  }
 ],
 "nodes": [
  {
   "name": "Group",
   "translation": [
    0.1712999939918518,
    0.23970000445842743,
    0.7723000049591064
   ],
   "rotation": [
    0.0741876834996573,
    0,
    0,
    0.997244301316587
   ],
   "scale": [
    1.52839994430542,
    1.399700094907535,
    0.9786000371811259
   ],
   "children": [
    1
   ]
  },
  {
   "name": "Cone2",
   "rotation": [
    0.6508265804173771,
    0,
    0,
    0.7592264287135962
   ],
   "scale": [
    1.101199984550476,
    1.4716002320699848,
    1.0899000260280214
   ],
   "mesh": 0
  },
  {
   "name": "Cylinder",
   "translation": [
    0.17569999396800995,
    0.2167000025510788,
    -0.6510000228881836
   ],
   "rotation": [
    0.725408030438608,
    0,
    0,
    0.6883191266879614
   ],
   "scale": [
    1.6756999492645264,
    1.3454999988085308,
    1.6921001145825754
   ],
   "mesh": 1
  },
  {
   "name": "LightPreset",
   "translation": [
    0.256974995136261,
    0.38112199306488037,
    0.7507817149162292
   ]
  },
  {
   "name": "CameraPreset",
   "translation": [
    0.1551000028848648,
    0.22190000116825104,
    -1.422700047492981
   ]
  },
  {
   "name": "Sinon - Sword Art Online",
   "translation": [
    0.06759999692440033,
    0,
    0
   ],
   "rotation": [
    -0.472397712339945,
    0,
    0,
    0.8813854938532127
   ]
  },
  {
   "name": "Cone",
   "translation": [
    0.20520000159740448,
    1.3883999586105347,
    -1.1509000062942505
   ],
   "mesh": 2
  },
  {
   "name": "Cone1",
   "translation": [
    0,
    -23.658199310302734,
    5.404300212860107
   ],
   "mesh": 3
  },
  {
   "name": "Group2",
   "translation": [
    0.16099999845027924,
    0.25780001282691956,
    -2.207900047302246
   ],
   "children": [
    9
   ]
  },
  {
   "name": "Group3",
   "children": [
    10
   ]
  },
  {
   "name": "Group1",
   "children": [
    11
   ]
  },
  {
   "name": "Group4",
   "children": [
    12
   ]
  },
  {
   "name": "Cylinder1",
   "rotation": [
    0.7201721904835033,
    0,
    0,
    0.6937953921237066
   ],
   "scale": [
    1.5498000383377075,
    1.7130001169458047,
    1.7418997467012036
   ],
   "mesh": 4
  }
 ],
 "scene": 0,
 "scenes": [
  {
   "nodes": [
    0,
    2,
    3,
    4,
    5,
    6,
    7,
    8
   ]
  }
 ]
}