{
 "accessors": [
  {
   "componentType": 5126,
   "type": "VEC3",
   "count": 214,
   "max": [
    8.267975807189941,
    50.060791015625,
    32.738670349121094
   ],
   "min": [
    -8.26828670501709,
    -39.592201232910156,
    -31.44644546508789
   ],
   "bufferView": 1
  },
  {
   "componentType": 5126,
   "type": "VEC3",
   "count": 214,
   "bufferView": 2
  },
  {
   "componentType": 5126,
   "type": "VEC2",
   "count": 214,
   "bufferView": 3
  },
  {
   "componentType": 5121,
   "type": "SCALAR",
   "count": 288,
   "bufferView": 4
  }
 ],
 "asset": {
  "version": "2.0",
  "generator": "clara.io"
 },
 "bufferViews": [
  {
   "buffer": 0,
   "byteOffset": 0,
   "byteLength": 40877
  },
  {
   "buffer": 0,
   "byteOffset": 40880,
   "byteLength": 2568,
   "target": 34962,
   "byteStride": 12
  },
  {
   "buffer": 0,
   "byteOffset": 43448,
   "byteLength": 2568,
   "target": 34962,
   "byteStride": 12
  },
  {
   "buffer": 0,
   "byteOffset": 46016,
   "byteLength": 1712,
   "target": 34962,
   "byteStride": 8
  },
  {
   "buffer": 0,
   "byteOffset": 47728,
   "byteLength": 288,
   "target": 34963
  }
 ],
 "buffers": [
  {
   "byteLength": 48016,
   "uri": "data:application/octet-stream;base64,"
  }
 ],
 "images": [
  {
   "name": "Yellow_Fish_06 .png",
   "bufferView": 0,
   "mimeType": "image/png"
  }
 ],
 "materials": [
  {
   "name": "03 - Defaultdv",
   "pbrMetallicRoughness": {
    "baseColorFactor": [
     0.5882352941176471,
     0.5882352941176471,
     0.5882352941176471,
     1
    ],
    "baseColorTexture": {
     "index": 0,
     "texCoord": 0
    },
    "roughnessFactor": 0.7071,
    "metallicFactor": 0
   }
  }
 ],
 "meshes": [
  {
   "primitives": [
    {
     "indices": 3,
     "material": 0,
     "mode": 4,
     "attributes": {
      "POSITION": 0,
      "NORMAL": 1,
      "TEXCOORD_0": 2
     }
    }
   ]
  }
 ],
 "nodes": [
  {
   "name": "Yellow_Fish_06",
   "children": [
    3
   ]
  },
  {
   "name": "LightPreset",
   "translation": [
    0.03304476663470268,
    23.749313354492188,
    -10.822093963623047
   ]
  },
  {
   "name": "CameraPreset",
   "translation": [
    0.03304476663470268,
    23.749313354492188,
    -10.822093963623047
   ]
  },
  {
   "name": "Object028",
   "translation": [
    0.03319999948143959,
    23.103200912475586,
    -5.587800025939941
   ],
   "rotation": [
    -0.7071067811865475,
    0,
    0,
    0.7071067811865476
   ],
   "mesh": 0
  }
 ],
 "samplers": [
  {
   "magFilter": 9729,
   "minFilter": 9987,
   "wrapS": 10497,
   "wrapT": 10497
  }
 ],
 "scene": 0,
 "scenes": [
  {
   "nodes": [
    0,
    1,
    2
   ]
  }
 ],
 "textures": [
  {
   "sampler": 0,
   "source": 0
  }
 ]
}